PathFileType	4	(X/Y/Z)	65_2_61_p1_0-240_filt_butterworth.trc
DataRate	CameraRate	NumFrames	NumMarkers	Units	OrigDataRate	OrigDataStartFrame	OrigNumFrames
59.0	59.0	4	27	m	59.0	0	240
Frame#	Time	RHip			RKnee			RAnkle			RBigToe			RSmallToe			RHeel			LHip			LKnee			LAnkle			LBigToe			LSmallToe			LHeel			Neck			Head			Nose			RShoulder			RElbow			RWrist			RThumb			RIndex			RPinky			LShoulder			LElbow			LWrist			LThumb			LIndex			LPinky			
		X1	Y1	Z1	X2	Y2	Z2	X3	Y3	Z3	X4	Y4	Z4	X5	Y5	Z5	X6	Y6	Z6	X7	Y7	Z7	X8	Y8	Z8	X9	Y9	Z9	X10	Y10	Z10	X11	Y11	Z11	X12	Y12	Z12	X13	Y13	Z13	X14	Y14	Z14	X15	Y15	Z15	X16	Y16	Z16	X17	Y17	Z17	X18	Y18	Z18	X19	Y19	Z19	X20	Y20	Z20	X21	Y21	Z21	X22	Y22	Z22	X23	Y23	Z23	X24	Y24	Z24	X25	Y25	Z25	X26	Y26	Z26	X27	Y27	Z27	
0	0.0	0.4194744164767382	0.7453224187669837	0.27531794913619767	0.38254559606804583	0.9114065840874171	0.6994729935899886	0.3045411390972214	1.0685315402920557	1.1143526310928602	0.2782998812865797	0.8237535210672939	1.1949420246500166	0.34660532728003474	0.8747713751133946	1.1986693417093526	0.28204968631415955	1.1382668491489956	1.158655017225134	0.187383256540052	0.747480515001931	0.2547116629349299	0.15434651178405479	0.8959167287182132	0.6808804537141071	0.12113921037731581	1.0337330668883737	1.0841221703348898	0.1448789069405908	0.875777997803695	1.1913031438564132	0.07266957285898647	0.9016398216235104	1.167306329376486	0.13495159249589844	1.1218771537556484	1.1301419780483823	0.37788082738264805	0.5070302094013834	-0.3855623283484124	0.4153913935025896	0.3789999220212164	-0.627191349162329	0.39044775225688294	0.35237248649027036	-0.4539902152512295	0.5371045396931462	0.5483611267003643	-0.2502502125145142	0.5233584509023286	0.5853778245823446	0.05094283867084798	0.38257777983258784	0.5190027449952948	0.26024911070091095	0.3162897439584846	0.511474657958771	0.29451960960890416	0.29503465224789793	0.5529444877863638	0.33091905171779046	0.2851818211022577	0.5724507695453608	0.3510138353844453	0.19779686640640218	0.5329072455779845	-0.30658825940735407	0.13197944299054026	0.578460488009273	-0.019720663545501643	0.2442686694525416	0.5181740846815137	0.21973509823227405	0.35791022680480966	0.48512604809087556	0.2733643091853585	0.3523882461604886	0.500624681612862	0.30984121160613426	0.29005639817969026	0.5701185275714239	0.35159581657127437
1	0.0169491525423728	0.41709126261428453	0.7359684175882146	0.2750123213025847	0.38202848383607846	0.9108549079284798	0.7018399957389163	0.3028870446731068	1.075756342076045	1.1160198283393838	0.27754569206568336	0.8200704298572409	1.1937103402197096	0.34901171484770116	0.8638835878405685	1.1923146688047714	0.28338402893658793	1.1504973076306242	1.1646365686031164	0.18505386245721173	0.747099969088791	0.2556116196477009	0.15422943972113168	0.8954429962962775	0.6831449214172431	0.12073755999535113	1.0340314346314703	1.0852485484744459	0.14200730871095	0.8739980995961538	1.1905832807705583	0.07268877406483407	0.9021982407340604	1.1673986375955583	0.13632137597481375	1.1156590566340634	1.1258714128217093	0.3778440631279044	0.5070369775153823	-0.38555908796909144	0.415245852895982	0.3793915637745495	-0.6254830321781509	0.39043142679638176	0.35166915846040026	-0.4537250287006191	0.5370179432756744	0.5479350062209771	-0.2500964973636579	0.523317554605446	0.5853558642111758	0.05106587847803003	0.3811275372112324	0.5259078861713328	0.2624122771533075	0.31432575911354477	0.5122881276989494	0.29906160048250524	0.2924107470719116	0.5556082791660159	0.34011893357475526	0.2835044978300697	0.5780035379705315	0.35396459182931667	0.19764327728475203	0.5356147200155743	-0.3070829360888265	0.129444701598598	0.5865402124923026	-0.018095606507980037	0.24218270513836526	0.5180007896788388	0.22074281102319004	0.35148129747353657	0.4852309861257213	0.2728455864025685	0.34650726522812153	0.5052948786824484	0.3123395018561149	0.28703808169068595	0.5633042785880236	0.35234782614202403
2	0.0338983050847457	0.4156724533645483	0.7303816941016797	0.27480647911867534	0.38175921061353807	0.9105660229259122	0.7032349879703966	0.30130811369501337	1.0826315507537572	1.1176376163748942	0.27746379902307244	0.8201344083669017	1.1936343985163222	0.35044241952395816	0.8576182900383016	1.1885466538234224	0.2841714301966886	1.157783268029962	1.168161472543946	0.1836480840843176	0.7465574281574567	0.2555605391814396	0.15415540134587205	0.8951628026160514	0.6845201466302371	0.1206985899931891	1.0339837130283234	1.0852865413778527	0.14038385217104166	0.8730283398054349	1.1901551271811608	0.07265614523081924	0.9026637991485222	1.1674763798404832	0.1363749517980844	1.1147398364184378	1.1235774913371193	0.37782092844013565	0.5070727684281682	-0.3855596971694841	0.4151765786903425	0.3796017092577094	-0.6244641105376263	0.39043511201516984	0.3526805268109859	-0.4540434518635043	0.5369119103825986	0.5475030187125445	-0.2500088269082225	0.523284510989811	0.5852610888679072	0.05111556820528854	0.38069242383174823	0.5329592194320899	0.2637561296372247	0.31222003200703374	0.5164882001734625	0.303218577739907	0.2912565651631742	0.5577863834932848	0.34715250052481944	0.28222824651414935	0.5822375423725877	0.356732065785318	0.19730585013056653	0.5419653427912715	-0.3082627149411434	0.12880964303682038	0.5889725094375802	-0.01688009938872809	0.240290728534879	0.5178588719374799	0.2218117694157951	0.34709206605320225	0.4869494625557359	0.2725092035834027	0.3424881255176931	0.5104136278678126	0.314665837518901	0.28441711660952373	0.5592715178373189	0.35323355055346867
3	0.0508474576271186	0.4152969379630693	0.7288184994377257	0.27472881175839314	0.38173358393963047	0.91051733732149	0.7035681031265705	0.30022296363643597	1.08734856683475	1.1187791882558298	0.27783293494332706	0.8226768659987033	1.1943474533471674	0.3507982504899757	0.8560872204942556	1.187541867646112	0.2843756648094784	1.1597815191707295	1.1690895931360823	0.18323089250814303	0.7460614793632927	0.25491988449223707	0.1541360368592541	0.8950888435936861	0.6848469202411791	0.12091462257447293	1.0337030796071887	1.0845317650414674	0.1404080070367912	0.8730595270270421	1.1901197508499812	0.07259218389485202	0.9029040698293285	1.1675125496875578	0.13550422078896912	1.1174765202182093	1.123542358427186	0.377830851993606	0.5070824640456522	-0.3855691425983644	0.41520404157330887	0.3795549478277273	-0.6241361484977356	0.3904743999195557	0.3569099551993242	-0.45549675334353706	0.5369041447557417	0.5474157832038081	-0.2499943279420565	0.5232663966069951	0.5849958728637928	0.05107953913660314	0.38101502016207034	0.5400339115715385	0.26419242014020833	0.31100669823732263	0.5216338566977132	0.3060493629980339	0.29158386247665596	0.5591811527256716	0.3508403731947241	0.2813025620713939	0.5854342821547851	0.35862254538481286	0.19684875093908819	0.5508198421797734	-0.3099018066498884	0.12994984467983717	0.5860323801582354	-0.01617258326322705	0.23903226101360683	0.5177478099446796	0.2226202895609493	0.3449665611856244	0.4935093190542461	0.2723972658471845	0.34006714224175627	0.5170700700194371	0.31659665386610425	0.28240620892407564	0.5580358157629788	0.35394527829322325
